<svg fill="none" height="99" viewBox="0 0 128 99" width="128" xmlns="http://www.w3.org/2000/svg"><path d="m10.2437 40.9981-.0004.0003-4.30319 4.1802 1.3606 1.4036-1.36209-1.4022.00084-.0008c-4.36009 4.2272-4.35799 11.1152-.00078 15.3469.00004.0001.00008.0001.00012.0002l34.3739 33.3882c.0005.0005.001.0009.0015.0014 1.5132 1.4775 3.56 2.2875 5.6692 2.2875 2.1091 0 4.1558-.8099 5.669-2.2872.0006-.0005.0012-.0011.0017-.0017l70.9059-68.867c0-.0002.001-.0005.001-.0007 4.359-4.2281 4.358-11.1148 0-15.34654 0-.00006 0-.00012 0-.00017l-4.303-4.18055c-4.322-4.20362-11.314-4.20181-15.64-.00128v.00023l-56.6345 55.00231-20.1011-19.5225c-4.3263-4.2017-11.3116-4.2014-15.6387-.0002z" fill="#00c652" stroke="#fff" stroke-width="3.90984"/></svg>