<svg fill="none" height="92" viewBox="0 0 58 58" width="92" xmlns="http://www.w3.org/2000/svg" xmlns:xlink="http://www.w3.org/1999/xlink"><mask id="a" fill="#000" height="58" maskUnits="userSpaceOnUse" width="58" x="0" y="0"><path d="m0 0h58v58h-58z" fill="#fff"/><path clip-rule="evenodd" d="m51.5714 4.38493c-1.8466-1.84658-4.8405-1.84657-6.6871 0l-15.8843 15.88427-15.8843-15.88427c-1.8466-1.84657-4.84049-1.84658-6.68707 0l-2.04365 2.04366c-1.84658 1.84658-1.84659 4.84051-.00001 6.68701l15.88433 15.8844-15.88437 15.8843c-1.84658 1.8466-1.84657 4.8405.00001 6.6871l2.04365 2.0436c1.84658 1.8466 4.84051 1.8466 6.68701 0l15.8844-15.8843 15.8843 15.8843c1.8466 1.8466 4.8405 1.8466 6.6871 0l2.0437-2.0436c1.8465-1.8466 1.8465-4.8405 0-6.6871l-15.8844-15.8843 15.8843-15.8844c1.8466-1.8465 1.8466-4.84043 0-6.68701z" fill="#000" fill-rule="evenodd"/></mask><path clip-rule="evenodd" d="m51.5714 4.38493c-1.8466-1.84658-4.8405-1.84657-6.6871 0l-15.8843 15.88427-15.8843-15.88427c-1.8466-1.84657-4.84049-1.84658-6.68707 0l-2.04365 2.04366c-1.84658 1.84658-1.84659 4.84051-.00001 6.68701l15.88433 15.8844-15.88437 15.8843c-1.84658 1.8466-1.84657 4.8405.00001 6.6871l2.04365 2.0436c1.84658 1.8466 4.84051 1.8466 6.68701 0l15.8844-15.8843 15.8843 15.8843c1.8466 1.8466 4.8405 1.8466 6.6871 0l2.0437-2.0436c1.8465-1.8466 1.8465-4.8405 0-6.6871l-15.8844-15.8843 15.8843-15.8844c1.8466-1.8465 1.8466-4.84043 0-6.68701z" fill="#f95b5b" fill-rule="evenodd"/><path d="m44.8843 4.38493-1.6718-1.67176zm6.6871 0-1.6718 1.67176v.00001zm-22.5714 15.88427-1.6718 1.6718 1.6718 1.6718 1.6718-1.6718zm-15.8843-15.88427-1.6718 1.67177zm-6.68707 0 1.67177 1.67177zm-2.04365 2.04366 1.67176 1.67176zm-.00001 6.68701-1.67176 1.6718zm15.88433 15.8844 1.6717 1.6717 1.6718-1.6717-1.6718-1.6718zm-15.88437 15.8843 1.67176 1.6718zm.00001 6.6871-1.67177 1.6717zm2.04365 2.0436 1.67177-1.6717h-.00001zm6.68701 0 1.6718 1.6718zm15.8844-15.8843 1.6718-1.6718-1.6718-1.6718-1.6718 1.6718zm15.8843 15.8843 1.6718-1.6717zm8.7308-8.7307-1.6718 1.6718zm-15.8844-15.8843-1.6718-1.6718-1.6717 1.6718 1.6717 1.6717zm15.8843-15.8844 1.6718 1.6718zm0-6.68701 1.6718-1.67176zm-7.0589-.37189c.9233-.92329 2.4202-.92329 3.3435-.00001l3.3435-3.34352c-2.7699-2.7698691-7.2607-2.7698632-10.0306 0zm-15.8843 15.8843 15.8843-15.8843-3.3436-3.34353-15.8843 15.88433zm0-3.3435-15.8844-15.88433-3.3435 3.34353 15.8843 15.8843zm-15.8844-15.88433c-2.7698-2.7698646-7.26066-2.7698679-10.03053 0l3.34353 3.34353c.92328-.92329 2.4202-.92329 3.3435 0zm-10.03053 0-2.04366 2.04366 3.34353 3.34352 2.04366-2.04365zm-2.04366 2.04366c-2.7698625 2.76986-2.76987 7.26067 0 10.03057l3.34352-3.3435c-.92328-.9233-.92328-2.42026.00001-3.34355zm0 10.03057 15.88429 15.8843 3.3435-3.3435-15.88427-15.8843zm3.34348 31.7687 15.88431-15.8844-3.3435-3.3435-15.88433 15.8843zm.00001 3.3435c-.92329-.9233-.92329-2.4202-.00001-3.3435l-3.34352-3.3436c-2.7698713 2.7699-2.769861 7.2608 0 10.0306zm2.04365 2.0437-2.04365-2.0437-3.34353 3.3435 2.04366 2.0437zm3.34355 0c-.9233.9232-2.42026.9232-3.34354 0l-3.34353 3.3435c2.76987 2.7698 7.26067 2.7698 10.03057 0zm15.8843-15.8844-15.8843 15.8844 3.3435 3.3435 15.8844-15.8844zm0 3.3435 15.8844 15.8844 3.3435-3.3435-15.8843-15.8844zm15.8844 15.8844c2.7698 2.7698 7.2607 2.7698 10.0306 0l-3.3436-3.3435c-.9233.9232-2.4202.9232-3.3435 0zm10.0306 0 2.0436-2.0437-3.3435-3.3435-2.0437 2.0437zm2.0436-2.0437c2.7699-2.7698 2.7699-7.2607 0-10.0306l-3.3435 3.3436c.9233.9233.9233 2.4202 0 3.3435zm0-10.0306-15.8843-15.8843-3.3436 3.3435 15.8844 15.8844zm-3.3435-31.7686-15.8844 15.8843 3.3436 3.3435 15.8843-15.8843zm-.0001-3.34355c.9233.92329.9233 2.42025.0001 3.34355l3.3435 3.3435c2.7698-2.7699 2.7698-7.26071 0-10.03057zm-2.0436-2.04365 2.0437 2.04365 3.3435-3.34352-2.0437-2.04366z" fill="#fff" mask="url(#a)"/></svg>